solid 
   facet normal -0.000000e+00 1.000000e+00 0.000000e+00
      outer loop
         vertex 5.000000e+00 5.000000e+00 -6.123234e-16
         vertex 5.624099e-32 5.000000e+00 3.061617e-16
         vertex 9.184850e-16 5.000000e+00 5.000000e+00
      endloop
   endfacet
   facet normal -0.000000e+00 1.000000e+00 0.000000e+00
      outer loop
         vertex 5.000000e+00 5.000000e+00 -6.123234e-16
         vertex 9.184850e-16 5.000000e+00 5.000000e+00
         vertex 5.000000e+00 5.000000e+00 5.000000e+00
      endloop
   endfacet
   facet normal -0.000000e+00 0.000000e+00 1.000000e+00
      outer loop
         vertex 5.000000e+00 5.000000e+00 5.000000e+00
         vertex 9.184850e-16 5.000000e+00 5.000000e+00
         vertex 9.184850e-16 0.000000e+00 5.000000e+00
      endloop
   endfacet
   facet normal -0.000000e+00 0.000000e+00 1.000000e+00
      outer loop
         vertex 5.000000e+00 5.000000e+00 5.000000e+00
         vertex 9.184850e-16 0.000000e+00 5.000000e+00
         vertex 5.000000e+00 -1.577722e-31 5.000000e+00
      endloop
   endfacet
   facet normal 0.000000e+00 -1.000000e+00 -6.123234e-17
      outer loop
         vertex 5.000000e+00 -3.061617e-16 5.000000e+00
         vertex 9.184850e-16 -3.061617e-16 5.000000e+00
         vertex 0.000000e+00 0.000000e+00 0.000000e+00
      endloop
   endfacet
   facet normal -1.087705e-32 -1.000000e+00 -6.123234e-17
      outer loop
         vertex 5.000000e+00 -3.061617e-16 5.000000e+00
         vertex 0.000000e+00 0.000000e+00 0.000000e+00
         vertex 5.000000e+00 1.855749e-33 -9.184850e-16
      endloop
   endfacet
   facet normal -1.836970e-16 6.123234e-17 -1.000000e+00
      outer loop
         vertex 5.000000e+00 0.000000e+00 -9.184850e-16
         vertex 0.000000e+00 0.000000e+00 0.000000e+00
         vertex 5.624099e-32 5.000000e+00 3.061617e-16
      endloop
   endfacet
   facet normal -1.836970e-16 6.123233e-17 -1.000000e+00
      outer loop
         vertex 5.000000e+00 0.000000e+00 -9.184850e-16
         vertex 5.624099e-32 5.000000e+00 3.061617e-16
         vertex 5.000000e+00 5.000000e+00 -6.123234e-16
      endloop
   endfacet
   facet normal 1.000000e+00 0.000000e+00 -0.000000e+00
      outer loop
         vertex 5.000000e+00 0.000000e+00 -9.184850e-16
         vertex 5.000000e+00 5.000000e+00 -6.123234e-16
         vertex 5.000000e+00 5.000000e+00 5.000000e+00
      endloop
   endfacet
   facet normal 1.000000e+00 0.000000e+00 0.000000e+00
      outer loop
         vertex 5.000000e+00 0.000000e+00 -9.184850e-16
         vertex 5.000000e+00 5.000000e+00 5.000000e+00
         vertex 5.000000e+00 -3.061617e-16 5.000000e+00
      endloop
   endfacet
   facet normal -1.000000e+00 7.422384e-40 1.836970e-16
      outer loop
         vertex 9.184850e-16 5.000000e+00 5.000000e+00
         vertex 5.624099e-32 5.000000e+00 3.061617e-16
         vertex 0.000000e+00 0.000000e+00 0.000000e+00
      endloop
   endfacet
   facet normal -1.000000e+00 0.000000e+00 1.836970e-16
      outer loop
         vertex 9.184850e-16 -3.061617e-16 5.000000e+00
         vertex 9.184850e-16 5.000000e+00 5.000000e+00
         vertex 0.000000e+00 0.000000e+00 0.000000e+00
      endloop
   endfacet
endsolid
